HIERARCHY
ROOT Hips
{
	OFFSET -0.001795 -0.223333 0.028219
	CHANNELS 6 Xposition Yposition Zposition Zrotation Yrotation Xrotation 
	JOINT LeftUpLeg
	{
		OFFSET 0.069520 -0.091406 -0.006815
		CHANNELS 3 Zrotation Yrotation Xrotation
		JOINT LeftLeg
		{
			OFFSET 0.034277 -0.375199 -0.004496
			CHANNELS 3 Zrotation Yrotation Xrotation
			JOINT LeftFoot
			{
				OFFSET -0.013596 -0.397961 -0.043693
				CHANNELS 3 Zrotation Yrotation Xrotation
				JOINT LeftToe
				{
					OFFSET 0.026358 -0.055791 0.119288
					CHANNELS 3 Zrotation Yrotation Xrotation
					End Site
					{
						OFFSET 0.000000 0.000000 0.000000
					}
				}
			}
		}
	}
	JOINT RightUpLeg
	{
		OFFSET -0.067670 -0.090522 -0.004320
		CHANNELS 3 Zrotation Yrotation Xrotation
		JOINT RightLeg
		{
			OFFSET -0.038290 -0.382569 -0.008850
			CHANNELS 3 Zrotation Yrotation Xrotation
			JOINT RightFoot
			{
				OFFSET 0.015774 -0.398415 -0.042312
				CHANNELS 3 Zrotation Yrotation Xrotation
				JOINT RightToe
				{
					OFFSET -0.025372 -0.048144 0.123348
					CHANNELS 3 Zrotation Yrotation Xrotation
					End Site
					{
						OFFSET 0.000000 0.000000 0.000000
					}
				}
			}
		}
	}
	JOINT Spine
	{
		OFFSET -0.002533 0.108963 -0.026696
		CHANNELS 3 Zrotation Yrotation Xrotation
		JOINT Spine1
		{
			OFFSET 0.005487 0.135180 0.001092
			CHANNELS 3 Zrotation Yrotation Xrotation
			JOINT Spine2
			{
				OFFSET 0.001457 0.052922 0.025425
				CHANNELS 3 Zrotation Yrotation Xrotation
				JOINT Neck
				{
					OFFSET -0.002778 0.213870 -0.042857
					CHANNELS 3 Zrotation Yrotation Xrotation
					JOINT Head
					{
						OFFSET 0.005152 0.064970 0.051349
						CHANNELS 3 Zrotation Yrotation Xrotation
						End Site
						{
							OFFSET 0.000000 0.000000 0.000000
						}
					}
				}
				JOINT LeftShoulder
				{
					OFFSET 0.078845 0.121749 -0.034090
					CHANNELS 3 Zrotation Yrotation Xrotation
					JOINT LeftArm
					{
						OFFSET 0.090977 0.030469 -0.008868
						CHANNELS 3 Zrotation Yrotation Xrotation
						JOINT LeftForeArm
						{
							OFFSET 0.259612 -0.012772 -0.027456
							CHANNELS 3 Zrotation Yrotation Xrotation
							JOINT LeftHand
							{
								OFFSET 0.249234 0.008986 -0.001171
								CHANNELS 3 Zrotation Yrotation Xrotation
								End Site
								{
									OFFSET 0.000000 0.000000 0.000000
								}
							}
						}
					}
				}
				JOINT RightShoulder
				{
					OFFSET -0.081759 0.118833 -0.038615
					CHANNELS 3 Zrotation Yrotation Xrotation
					JOINT RightArm
					{
						OFFSET -0.096012 0.032551 -0.009143
						CHANNELS 3 Zrotation Yrotation Xrotation
						JOINT RightForeArm
						{
							OFFSET -0.253742 -0.013329 -0.021401
							CHANNELS 3 Zrotation Yrotation Xrotation
							JOINT RightHand
							{
								OFFSET -0.255298 0.007772 -0.005559
								CHANNELS 3 Zrotation Yrotation Xrotation
								End Site
								{
									OFFSET 0.000000 0.000000 0.000000
								}
							}
						}
					}
				}
			}
		}
	}
}
MOTION
Frames: 17
Frame Time: 0.050000
0.000000 0.629691 0.000000 -1.540029 0.938812 -18.480884 8.741712 -1.514276 -58.210177 -15.124649 11.872275 84.563245 -13.645061 -23.161523 6.819124 0.000000 0.000000 0.000000 -8.276278 1.386637 -56.823963 13.914980 -10.857946 83.881436 -16.647032 -34.469566 10.089417 0.000000 0.000000 0.000000 3.754588 -2.129230 30.149828 -2.165353 1.208131 -9.746687 -1.718896 2.583845 4.649820 5.726123 -2.138546 -15.666655 0.000000 0.000000 0.000000 -14.842687 -4.792106 0.142951 -55.378005 -5.873468 -4.275731 -10.902126 -20.862551 2.600454 0.000000 0.000000 0.000000 14.954236 1.695718 0.084003 57.695704 9.336536 -1.547555 7.323322 25.850909 2.588651 0.000000 0.000000 0.000000 
-0.000051 0.626229 0.001596 -2.057855 0.436488 -18.012105 9.822874 -0.792293 -59.275026 -15.387252 12.448490 85.354901 -13.872769 -23.191043 7.290289 0.000000 0.000000 0.000000 -7.367302 2.113422 -58.924134 13.588846 -10.738129 85.611224 -16.933754 -34.088741 13.392572 0.000000 0.000000 0.000000 4.924697 -2.265584 29.111118 -2.475703 1.324423 -8.271470 -2.408588 2.480538 4.602146 5.745060 -2.059053 -16.289863 0.000000 0.000000 0.000000 -15.354319 -4.841025 0.128574 -54.820683 -7.051974 -3.630443 -11.218999 -21.193906 2.698515 0.000000 0.000000 0.000000 15.421519 1.119242 -0.222045 59.117695 8.888146 -1.757267 6.023684 27.242360 2.470686 0.000000 0.000000 0.000000 
-0.000081 0.625488 0.002448 -1.069930 0.143288 -17.832352 9.421704 -0.846608 -58.993331 -15.816623 13.062068 84.789401 -13.284828 -22.929337 6.310968 0.000000 0.000000 0.000000 -7.856551 1.986131 -58.616629 13.372169 -10.204638 85.407550 -16.566841 -34.255702 10.645981 0.000000 0.000000 0.000000 4.264568 -2.047546 28.631869 -2.582579 1.357864 -7.754666 -2.374639 2.469125 4.463287 4.155379 -1.110785 -15.988983 0.000000 0.000000 0.000000 -16.217741 -5.291703 0.316539 -54.266866 -6.906275 -3.623041 -9.447274 -20.005041 2.253583 0.000000 0.000000 0.000000 17.197291 0.950221 -0.447622 56.609805 9.483794 -1.468113 5.070488 26.144055 2.113101 0.000000 0.000000 0.000000 
-0.000309 0.625566 0.002954 -0.859028 -0.832982 -17.462985 9.723152 -0.317772 -59.227595 -15.569530 13.230446 84.901631 -13.225259 -22.864299 6.237677 0.000000 0.000000 0.000000 -7.050703 2.839265 -59.455082 12.881607 -9.358714 85.899501 -16.504688 -34.038042 11.187436 0.000000 0.000000 0.000000 3.767204 -1.880424 28.825090 -2.592958 1.332322 -7.974251 -1.980933 2.832607 3.965086 3.539252 -0.824080 -15.195634 0.000000 0.000000 0.000000 -15.750298 -3.896857 -0.263553 -55.143124 -7.642487 -3.334634 -10.308864 -19.742131 2.369615 0.000000 0.000000 0.000000 16.452208 0.770769 -0.565381 55.815637 9.136453 -1.559293 6.886690 25.900606 2.452432 0.000000 0.000000 0.000000 
-0.000709 0.626313 0.003230 -0.636259 -0.915968 -17.645401 9.274708 -0.522095 -58.470450 -15.206598 12.829285 84.545435 -12.754428 -23.273239 4.769263 0.000000 0.000000 0.000000 -7.375243 2.670724 -59.026140 13.214144 -9.579298 85.588793 -16.432568 -34.073295 10.626548 0.000000 0.000000 0.000000 3.182528 -1.782032 29.418992 -2.543781 1.309331 -8.053906 -1.604938 2.681508 3.863854 3.266945 -0.676392 -15.242373 0.000000 0.000000 0.000000 -16.157188 -4.214564 -0.094997 -54.340119 -7.819901 -3.190046 -10.533837 -19.428997 2.379278 0.000000 0.000000 0.000000 16.308251 1.071668 -0.477673 56.297554 9.009972 -1.615115 6.673715 25.270964 2.319693 0.000000 0.000000 0.000000 
-0.001078 0.627195 0.003504 -0.881701 -0.695002 -17.746741 9.181803 -0.664582 -58.268593 -14.957832 12.437047 84.567232 -12.789429 -23.532109 4.573815 0.000000 0.000000 0.000000 -7.126452 2.717942 -58.968505 13.031586 -9.526116 85.726399 -16.530894 -33.998550 11.454477 0.000000 0.000000 0.000000 3.273307 -1.825644 29.464923 -2.413165 1.260518 -7.569681 -1.396560 2.294528 3.704002 3.118766 -0.642632 -14.971841 0.000000 0.000000 0.000000 -16.735233 -3.672443 -0.360095 -53.902980 -7.945186 -3.082429 -10.562613 -20.195036 2.486463 0.000000 0.000000 0.000000 16.686743 0.919259 -0.640143 56.116509 8.843921 -1.671979 6.985981 24.287870 2.256172 0.000000 0.000000 0.000000 
-0.001231 0.628516 0.003778 -0.890337 -0.575223 -17.737954 9.069038 -0.765327 -58.040922 -14.905037 12.281711 84.335532 -12.758802 -23.628207 4.399795 0.000000 0.000000 0.000000 -7.142062 2.674757 -59.076833 12.955470 -9.513007 85.845625 -16.524176 -33.754059 12.323018 0.000000 0.000000 0.000000 3.334700 -1.858361 29.586521 -2.418943 1.266008 -7.750861 -1.466941 2.175269 4.054449 2.972214 -0.507150 -15.416892 0.000000 0.000000 0.000000 -16.900507 -3.573614 -0.404995 -53.608691 -8.079432 -3.030726 -10.648540 -20.553170 2.550103 0.000000 0.000000 0.000000 16.735831 0.538822 -0.829318 56.261288 8.447938 -1.899870 7.070060 24.543355 2.306873 0.000000 0.000000 0.000000 
-0.001101 0.629077 0.004169 -0.888603 -0.713535 -17.472033 9.173335 -0.664032 -58.345651 -14.904604 12.354436 84.371032 -12.872138 -23.497228 4.782218 0.000000 0.000000 0.000000 -7.024171 2.815238 -59.477803 12.858211 -9.384901 85.967169 -16.517777 -33.620330 12.815121 0.000000 0.000000 0.000000 3.366570 -1.831502 29.226404 -2.410069 1.256863 -7.696827 -1.544141 2.316526 4.210665 2.907749 -0.465222 -15.337418 0.000000 0.000000 0.000000 -16.881592 -3.732382 -0.336565 -53.496486 -7.904448 -3.110656 -10.425215 -21.263030 2.599322 0.000000 0.000000 0.000000 16.972035 0.387447 -0.895547 56.054684 8.067509 -2.093843 7.084863 24.671755 2.332821 0.000000 0.000000 0.000000 
-0.000704 0.629079 0.004565 -0.795567 -0.628603 -17.280615 8.950220 -0.824164 -58.675867 -14.813718 12.281175 84.513526 -12.892774 -23.336434 4.999801 0.000000 0.000000 0.000000 -7.459343 2.562618 -59.827788 13.154531 -9.742258 86.031040 -16.489308 -33.468520 13.245548 0.000000 0.000000 0.000000 3.429092 -1.839891 29.041566 -2.514240 1.302228 -7.535846 -1.547327 2.162676 4.128571 2.552003 -0.226805 -15.524416 0.000000 0.000000 0.000000 -16.946252 -3.753372 -0.311477 -53.287867 -8.010839 -3.036364 -10.642892 -21.422937 2.662563 0.000000 0.000000 0.000000 17.072764 0.423092 -0.909109 55.774747 7.783973 -2.208327 7.250313 24.758402 2.369309 0.000000 0.000000 0.000000 
-0.000189 0.628952 0.004921 -0.737177 -0.772738 -17.105152 8.896633 -0.805511 -58.861245 -14.735709 12.286874 84.578544 -12.831322 -23.275071 4.932324 0.000000 0.000000 0.000000 -7.669778 2.510630 -60.091027 13.282837 -9.921148 86.648012 -15.519322 -32.306335 11.745265 0.000000 0.000000 0.000000 3.519778 -1.839436 28.901370 -2.584382 1.326917 -7.804269 -1.536069 2.303618 4.481563 2.328554 -0.041422 -15.878808 0.000000 0.000000 0.000000 -16.716908 -4.008810 -0.164997 -53.389721 -8.051272 -3.057760 -10.566194 -21.344250 2.641540 0.000000 0.000000 0.000000 17.007737 0.573902 -0.802185 55.501039 7.864825 -2.199424 7.270200 24.741856 2.380815 0.000000 0.000000 0.000000 
0.000278 0.628783 0.005229 -0.752391 -0.915126 -16.917064 8.915340 -0.745836 -58.941680 -14.674567 12.278057 84.532663 -12.679826 -23.354386 4.519569 0.000000 0.000000 0.000000 -7.984564 2.393026 -60.346334 13.560526 -10.267440 87.222242 -14.466308 -30.930998 10.181803 0.000000 0.000000 0.000000 3.601352 -1.842256 28.835015 -2.586166 1.324271 -7.731701 -1.480004 2.435406 4.379995 2.188483 0.075273 -16.075251 0.000000 0.000000 0.000000 -16.309743 -4.185070 -0.053487 -53.692758 -8.159078 -3.022418 -10.578044 -21.304672 2.638225 0.000000 0.000000 0.000000 16.928960 0.785948 -0.683138 55.201003 8.096586 -2.068750 7.219321 24.816281 2.377578 0.000000 0.000000 0.000000 
0.000587 0.628283 0.005458 -0.775482 -0.960029 -16.725549 8.913486 -0.735420 -59.093381 -14.642524 12.264727 84.526594 -12.527184 -23.432407 4.107826 0.000000 0.000000 0.000000 -8.184831 2.298872 -60.488754 13.539122 -10.315027 87.754244 -13.381729 -29.422977 8.371373 0.000000 0.000000 0.000000 3.641948 -1.841436 28.699604 -2.491954 1.280773 -7.699425 -1.417839 2.659533 4.328767 2.038098 0.174824 -15.881524 0.000000 0.000000 0.000000 -15.922433 -4.391974 0.042192 -53.952990 -8.150274 -3.035125 -10.622187 -21.139154 2.618169 0.000000 0.000000 0.000000 16.947099 0.941966 -0.566848 54.971343 8.177056 -2.023911 7.017078 25.002083 2.365755 0.000000 0.000000 0.000000 
0.000802 0.628079 0.005648 -0.742427 -1.073635 -16.481976 9.174992 -0.541763 -59.178845 -14.957620 12.600815 84.259328 -12.404136 -23.439230 3.830782 0.000000 0.000000 0.000000 -8.407565 2.226319 -60.765138 13.417621 -10.263640 88.579821 -11.995647 -27.244322 6.354543 0.000000 0.000000 0.000000 3.703672 -1.838110 28.541471 -2.546680 1.298996 -7.723052 -1.186458 2.658705 4.399885 1.811353 0.320259 -15.999301 0.000000 0.000000 0.000000 -15.614926 -4.514176 0.152407 -54.207918 -8.251764 -3.014304 -10.600249 -20.937521 2.594863 0.000000 0.000000 0.000000 16.759311 1.237590 -0.424910 54.891090 8.447829 -1.894188 6.699193 25.188632 2.316878 0.000000 0.000000 0.000000 
0.000925 0.627950 0.005783 -0.716070 -1.065373 -16.187905 9.349729 -0.442700 -59.416820 -15.229722 12.861225 84.062727 -12.348680 -23.384148 3.768983 0.000000 0.000000 0.000000 -8.636860 2.101422 -60.947489 13.351374 -10.189084 88.609977 -11.404732 -26.239888 5.545996 0.000000 0.000000 0.000000 3.696296 -1.828864 28.361160 -2.478671 1.267402 -7.663012 -1.019357 2.693972 4.398850 1.449985 0.531084 -15.797863 0.000000 0.000000 0.000000 -15.479666 -4.604879 0.209286 -54.235139 -8.139723 -3.063939 -10.430631 -21.253086 2.605176 0.000000 0.000000 0.000000 16.568617 1.410450 -0.326586 54.843762 8.454570 -1.882048 6.475276 25.815299 2.337699 0.000000 0.000000 0.000000 
0.000955 0.628301 0.005839 -0.648188 -0.984351 -16.110337 9.419044 -0.426114 -59.454313 -15.468413 13.060658 83.887031 -12.391474 -23.275477 3.976779 0.000000 0.000000 0.000000 -8.828499 1.962434 -60.894170 12.937158 -9.666426 88.360519 -10.650816 -24.782670 5.577593 0.000000 0.000000 0.000000 3.706214 -1.838372 28.376842 -2.418255 1.242108 -7.682507 -0.942500 2.654082 4.485052 1.314020 0.608732 -15.738561 0.000000 0.000000 0.000000 -15.299406 -4.546653 0.206250 -54.451956 -8.166484 -3.077097 -10.029454 -21.242572 2.533443 0.000000 0.000000 0.000000 16.389800 1.497093 -0.276094 54.907884 8.510932 -1.859882 6.277731 26.383177 2.355267 0.000000 0.000000 0.000000 
0.000890 0.628543 0.005777 -0.665926 -0.907814 -16.068606 9.386814 -0.474897 -59.624207 -15.439033 13.021915 83.982163 -12.522573 -23.171488 4.376601 0.000000 0.000000 0.000000 -9.090656 1.776577 -60.787680 12.797135 -9.440418 87.914155 -10.070789 -23.638472 5.821573 0.000000 0.000000 0.000000 3.783492 -1.869949 28.502780 -2.416850 1.244598 -7.871722 -0.828232 2.520600 4.687291 1.014302 0.782351 -15.715490 0.000000 0.000000 0.000000 -15.164869 -4.491764 0.222710 -54.831614 -8.218491 -3.104193 -9.584201 -21.174746 2.453888 0.000000 0.000000 0.000000 16.248031 1.391314 -0.339475 55.008828 8.503254 -1.877313 6.190158 26.812771 2.376634 0.000000 0.000000 0.000000 
0.000756 0.628859 0.005607 -0.705020 -0.909308 -15.961545 9.407870 -0.465068 -59.714158 -15.394088 12.965503 83.941680 -12.541110 -23.190409 4.395221 0.000000 0.000000 0.000000 -9.261586 1.673160 -60.733357 12.812744 -9.357791 87.322105 -9.845793 -23.180313 6.217486 0.000000 0.000000 0.000000 3.836670 -1.891703 28.619965 -2.355447 1.217921 -8.017130 -0.760938 2.425456 4.821198 0.914720 0.813855 -15.490626 0.000000 0.000000 0.000000 -15.076808 -4.487328 0.253700 -55.072530 -8.275031 -3.110785 -9.187208 -21.110883 2.381511 0.000000 0.000000 0.000000 16.060345 1.370565 -0.356250 55.110569 8.401816 -1.931846 6.307670 27.377888 2.458247 0.000000 0.000000 0.000000 
